<?xml version="1.0" standalone="no"?>
<!DOCTYPE svg PUBLIC "-//W3C//DTD SVG 20010904//EN"
 "http://www.w3.org/TR/2001/REC-SVG-20010904/DTD/svg10.dtd">
<svg version="1.0" xmlns="http://www.w3.org/2000/svg"
 width="500.000000pt" height="500.000000pt" viewBox="0 0 500.000000 500.000000"
 preserveAspectRatio="xMidYMid meet">
<metadata>
Created by potrace 1.11, written by Peter Selinger 2001-2013
</metadata>
<g transform="translate(0.000000,500.000000) scale(0.100000,-0.100000)"
fill="#000000" stroke="none">
<path d="M1897 4230 c-178 -55 -277 -204 -277 -415 0 -74 2 -81 20 -81 16 0
20 7 20 31 2 134 9 176 38 237 31 66 59 100 114 141 100 73 251 83 367 23 52
-28 120 -102 149 -164 l27 -57 3 -330 3 -330 -28 26 c-37 34 -116 84 -178 113
-125 59 -242 83 -417 85 l-118 2 2 -257 c3 -236 4 -257 21 -260 13 -2 17 5 17
34 1 21 2 127 3 237 l2 200 122 -2 c72 -1 151 -9 190 -18 92 -22 255 -103 326
-161 l57 -47 0 -179 c0 -171 1 -178 20 -178 11 0 20 6 21 13 0 6 0 76 0 155
l0 142 52 -39 c115 -86 248 -143 387 -165 44 -7 171 -12 310 -12 l235 1 3 268
2 267 -254 0 c-214 0 -255 -2 -259 -15 -4 -8 -2 -17 4 -21 6 -3 113 -6 239 -6
l229 0 0 -214 c0 -117 -2 -220 -5 -227 -4 -12 -47 -14 -237 -12 -238 3 -298
10 -402 47 -101 35 -229 112 -282 170 -21 23 -21 29 -21 350 0 297 2 331 20
385 35 103 103 175 208 219 40 17 82 19 390 24 323 5 345 6 348 23 4 17 -13
18 -350 15 -342 -3 -355 -4 -411 -27 -69 -27 -164 -111 -198 -176 -13 -25 -27
-45 -30 -45 -3 0 -14 19 -25 42 -10 23 -39 63 -65 89 -101 104 -253 142 -392
99z"/>
<path d="M1920 2755 c-75 -20 -114 -42 -167 -90 -93 -83 -133 -183 -133 -331
0 -77 1 -83 20 -81 17 1 20 9 21 47 1 115 10 166 38 224 35 76 88 128 166 166
172 84 381 8 464 -170 25 -53 26 -63 29 -272 3 -205 2 -218 -15 -219 -10 0
-172 -1 -360 -1 -341 -1 -358 -2 -335 -33 4 -6 135 -10 360 -10 l352 1 0 -227
0 -226 -356 -1 c-195 0 -358 -3 -361 -6 -3 -3 -3 -12 0 -21 6 -13 51 -15 362
-15 l355 0 0 -110 c0 -91 3 -110 15 -110 8 0 18 -1 22 -2 3 -2 6 48 6 110 l-1
112 484 0 c477 0 484 0 484 20 0 15 -7 20 -27 21 -16 0 -233 1 -483 2 l-455 2
-1 223 c-2 161 1 222 10 223 6 1 216 3 466 4 250 2 463 3 472 4 10 1 16 9 15
20 -1 18 -19 18 -467 19 -256 0 -473 1 -482 1 -16 1 -17 18 -15 214 l2 212 31
65 c39 82 92 135 173 173 63 30 68 30 237 33 191 3 255 -7 326 -49 65 -38 107
-84 141 -156 26 -55 31 -79 35 -168 4 -89 7 -103 21 -101 23 5 22 183 -2 253
-35 101 -135 202 -240 240 -42 16 -83 20 -217 22 -91 1 -191 -2 -222 -7 -114
-18 -229 -100 -281 -201 l-26 -51 -20 43 c-74 156 -277 250 -441 204z"/>
<path d="M3355 1260 c-4 -6 -6 -113 -6 -240 l1 -230 -768 0 c-422 0 -806 0
-854 0 -81 0 -88 -2 -88 -20 0 -20 7 -20 875 -20 l875 0 0 254 c0 214 -2 255
-15 259 -8 4 -17 2 -20 -3z"/>
</g>
</svg>
