<?xml version="1.0" standalone="no"?>
<!DOCTYPE svg PUBLIC "-//W3C//DTD SVG 20010904//EN"
 "http://www.w3.org/TR/2001/REC-SVG-20010904/DTD/svg10.dtd">
<svg version="1.0" xmlns="http://www.w3.org/2000/svg"
 width="1024.000000pt" height="1024.000000pt" viewBox="0 0 1024.000000 1024.000000"
 preserveAspectRatio="xMidYMid meet">
<metadata>
Created by potrace 1.11, written by Peter Selinger 2001-2013
</metadata>
<g transform="translate(0.000000,1024.000000) scale(0.100000,-0.100000)"
fill="#000000" stroke="none">
<path d="M3959 8398 c0 -623 -2 -1151 -4 -1173 -20 -204 -104 -417 -224 -570
-158 -201 -375 -330 -636 -379 -68 -13 -252 -15 -1229 -16 -632 0 -1151 -2
-1153 -4 -6 -6 -7 -65 -1 -71 2 -3 522 -5 1154 -5 977 -1 1161 -3 1229 -16
410 -77 726 -371 829 -770 26 -103 28 -116 31 -251 4 -199 -22 -323 -106 -499
-106 -224 -275 -392 -500 -498 -84 -40 -177 -70 -249 -82 -14 -2 -36 -7 -50
-11 -14 -4 -543 -7 -1175 -8 -633 0 -1155 -4 -1161 -7 -5 -4 -8 -22 -6 -40 l4
-33 1151 -1 c1053 0 1159 -2 1237 -18 117 -23 171 -42 271 -91 323 -159 547
-480 583 -835 3 -25 5 -557 5 -1182 l1 -1138 45 0 45 0 1 1150 c1 633 2 1153
3 1158 1 4 6 34 10 67 12 88 52 208 103 307 178 346 528 569 916 582 291 9
576 -103 782 -309 178 -177 282 -390 309 -630 3 -22 5 -554 5 -1182 l1 -1143
45 0 45 0 1 1153 c0 633 2 1163 5 1177 45 259 131 440 286 600 155 162 322
256 548 310 l95 23 1160 2 c638 2 1162 3 1165 4 3 0 6 18 7 38 l2 38 -1142 0
c-628 1 -1170 4 -1204 8 -150 18 -357 101 -478 192 -193 145 -335 347 -399
567 -34 119 -37 138 -41 278 -8 295 93 555 296 762 118 120 220 191 358 247
71 30 203 66 276 75 22 3 555 5 1185 6 l1146 0 -1 38 0 37 -155 2 c-85 2 -614
4 -1175 6 -561 2 -1033 6 -1050 10 -266 66 -408 142 -570 302 -172 171 -281
404 -310 660 -1 11 -3 532 -4 1158 l-1 1137 -45 0 -45 0 -1 -1132 c0 -623 -2
-1149 -4 -1168 -30 -254 -123 -460 -286 -635 -154 -165 -380 -286 -604 -322
-100 -16 -313 -8 -410 16 -206 50 -382 152 -528 305 -59 61 -147 186 -185 261
-49 98 -98 271 -107 382 -2 21 -4 545 -4 1166 l-1 1127 -45 0 -45 0 -1 -1132z
m1423 -2251 c411 -108 715 -442 785 -862 9 -54 10 -269 1 -325 -13 -83 -19
-105 -44 -184 -116 -362 -422 -634 -801 -711 -91 -18 -247 -25 -332 -14 -475
63 -843 416 -925 889 -14 83 -16 294 -2 350 3 14 8 39 12 55 3 17 15 59 26 95
119 372 443 654 831 725 117 22 331 13 449 -18z"/>
</g>
</svg>
